<svg fill="none" height="24" viewBox="0 0 24 24" width="24" xmlns="http://www.w3.org/2000/svg"><g fill="#22202a"><path d="m19.6137 6.49143c-.1669-.0566-.3216-.02897-.4317.00858h-14.42916c-.05256-.0143-.11291-.02483-.17871-.02528-.0725-.0005-.21107.01385-.33826.12003-.14929.12463-.21473.32323-.16793.51254.07313.29578.32872.37836.47036.3909l.00995.00671c.04527.03079.10107.07264.16963.12731.11683.09317.25245.20881.41509.34747l.09566.08151c.40523.34495.93308.78739 1.57196 1.2212 1.17866.8003 2.75511 1.5853 4.69941 1.7026v.015c0 .2761.2238.5.5.5.2761 0 .5-.2239.5-.5v-.0154c1.8938-.1172 3.4455-.8833 4.6168-1.67244.6365-.42885 1.1667-.86864 1.5788-1.21794l.1419-.12051c.1466-.12466.2723-.23156.3836-.3215.0856-.06914.1508-.11836.1995-.1522h.0199c.1934 0 .405-.11126.491-.33532.0447-.11628.0533-.26877-.0202-.41517-.0736-.14665-.1972-.22403-.2976-.25809z"/><path d="m12.5 13.5c0-.2761-.2239-.5-.5-.5-.2762 0-.5.2239-.5.5v2.5c0 .2761.2238.5.5.5.2761 0 .5-.2239.5-.5z"/><path d="m12.5 18.5c0-.2761-.2239-.5-.5-.5-.2762 0-.5.2239-.5.5v1.5h-3.50001c-.27614 0-.5.2239-.5.5s.22386.5.5.5h8.00001c.2761 0 .5-.2239.5-.5s-.2239-.5-.5-.5h-3.5z"/><path clip-rule="evenodd" d="m12.0763 4.29679c1.4709-.82368 3.1767-.04102 3.9947 1.32544.1418.23694.4489.31404.6858.17221s.314-.44888.1722-.68581c-1.0172-1.69939-3.3568-2.90994-5.4709-1.60863h-.8139c-.3013 0-.5688.1928-.66413.47864l-.42279 1.26838c-.14332.42996.26573.83902.69572.6957l1.2829-.42763c.2605-.08685.4462-.31807.4748-.59124zm-1.0267.20321h-.1892l-.0698.20943.2456-.08189zm5.1798 6.2981c.1948.1958.1939.5124-.0019.7071-.2326.2313-.5411.3993-.8632.5285-.3268.131-.7005.235-1.0911.3221-.6777.1511-1.453.2609-2.1891.3652-.1083.0153-.2157.0306-.3219.0458-.8475.1214-1.6034.2413-2.14528.4126-.27247.0861-.4484.1727-.54759.2497-.04646.0361-.06329.0604-.06803.0686-.00059.001-.00101.0018-.0013.0024.00011.0144.02247.1572.29911.3426.26232.1759.69612.3438 1.32139.4102.2746.0291.4735.2754.4444.55-.0292.2746-.2755.4735-.5501.4444-.74305-.079-1.34307-.2861-1.7725-.5739-.4144-.2778-.7423-.6871-.7423-1.1734 0-.3839.20877-.6687.45591-.8606.23694-.1841.54414-.3138.8597-.4135.63413-.2004 1.47389-.33 2.30479-.449.1088-.0156.2178-.0311.3266-.0465.7409-.1051 1.4725-.2088 2.1086-.3506.3628-.0809.679-.171.9364-.2743.2621-.1051.4321-.2117.5303-.3094.1958-.1947.5124-.1938.7071.002zm-3.3752 4.1729c.0629-.2689.3319-.4359.6007-.373.3664.0858.7327.2103 1.0166.4155.3047.2202.5285.5476.5285.9865 0 .692-.5401 1.0653-1.011 1.2708-.4861.2121-1.1191.3465-1.6985.4685l-.0433.0091c-.591.1244-1.1403.24-1.577.4063-.4677.1782-.647.3567-.69586.5034-.08732.262-.37048.4036-.63245.3162-.26198-.0873-.40356-.3704-.31623-.6324.2011-.6033.77185-.9248 1.28854-1.1216.5122-.1952 1.1303-.3251 1.6896-.4426.027-.0057.0539-.0113.0807-.017.6081-.128 1.1313-.2436 1.5046-.4065.3885-.1695.4109-.2962.4109-.3542 0-.0522-.0116-.1018-.1143-.1761-.1236-.0893-.3368-.1769-.6586-.2522-.2689-.0629-.4359-.3319-.3729-.6007z" fill-rule="evenodd"/></g></svg>